<svg xmlns="http://www.w3.org/2000/svg" xmlns:xlink="http://www.w3.org/1999/xlink" width="500" zoomAndPan="magnify" viewBox="0 0 375 374.999991" height="500" preserveAspectRatio="xMidYMid meet" version="1.0"><defs><clipPath id="fec8b7cf4d"><path d="M 133 148 L 162 148 L 162 177 L 133 177 Z M 133 148 " clip-rule="nonzero"/></clipPath><clipPath id="d8d55ef055"><path d="M 31.460938 90.039062 L 179.46875 65.679688 L 201.152344 197.40625 L 53.140625 221.769531 Z M 31.460938 90.039062 " clip-rule="nonzero"/></clipPath><clipPath id="fd82c811e4"><path d="M 31.460938 90.039062 L 179.46875 65.679688 L 201.152344 197.40625 L 53.140625 221.769531 Z M 31.460938 90.039062 " clip-rule="nonzero"/></clipPath><clipPath id="0d00ccef73"><path d="M 129 77 L 186 77 L 186 144 L 129 144 Z M 129 77 " clip-rule="nonzero"/></clipPath><clipPath id="e6a8b667b3"><path d="M 31.460938 90.039062 L 179.46875 65.679688 L 201.152344 197.40625 L 53.140625 221.769531 Z M 31.460938 90.039062 " clip-rule="nonzero"/></clipPath><clipPath id="68441766de"><path d="M 31.460938 90.039062 L 179.46875 65.679688 L 201.152344 197.40625 L 53.140625 221.769531 Z M 31.460938 90.039062 " clip-rule="nonzero"/></clipPath><clipPath id="2c43de41f7"><path d="M 127.148438 80.953125 L 180.535156 72.164062 L 191.578125 139.246094 L 138.191406 148.035156 Z M 127.148438 80.953125 " clip-rule="nonzero"/></clipPath><clipPath id="dca48f216c"><path d="M 89 135 L 112 135 L 112 158 L 89 158 Z M 89 135 " clip-rule="nonzero"/></clipPath><clipPath id="b784f3fa2b"><path d="M 31.460938 90.039062 L 179.46875 65.679688 L 201.152344 197.40625 L 53.140625 221.769531 Z M 31.460938 90.039062 " clip-rule="nonzero"/></clipPath><clipPath id="b660368dde"><path d="M 31.460938 90.039062 L 179.46875 65.679688 L 201.152344 197.40625 L 53.140625 221.769531 Z M 31.460938 90.039062 " clip-rule="nonzero"/></clipPath><clipPath id="0656e52d97"><path d="M 70 79 L 117 79 L 117 133 L 70 133 Z M 70 79 " clip-rule="nonzero"/></clipPath><clipPath id="ba45464184"><path d="M 31.460938 90.039062 L 179.46875 65.679688 L 201.152344 197.40625 L 53.140625 221.769531 Z M 31.460938 90.039062 " clip-rule="nonzero"/></clipPath><clipPath id="b6a3c2b641"><path d="M 31.460938 90.039062 L 179.46875 65.679688 L 201.152344 197.40625 L 53.140625 221.769531 Z M 31.460938 90.039062 " clip-rule="nonzero"/></clipPath><clipPath id="a058efad51"><path d="M 73 198 L 92 198 L 92 217 L 73 217 Z M 73 198 " clip-rule="nonzero"/></clipPath><clipPath id="f7132a43bd"><path d="M 31.460938 90.039062 L 179.46875 65.679688 L 201.152344 197.40625 L 53.140625 221.769531 Z M 31.460938 90.039062 " clip-rule="nonzero"/></clipPath><clipPath id="3339712da2"><path d="M 31.460938 90.039062 L 179.46875 65.679688 L 201.152344 197.40625 L 53.140625 221.769531 Z M 31.460938 90.039062 " clip-rule="nonzero"/></clipPath><clipPath id="30037535b9"><path d="M 71.914062 199.976562 L 89.648438 197.058594 L 92.613281 215.085938 L 74.882812 218.003906 Z M 71.914062 199.976562 " clip-rule="nonzero"/></clipPath><clipPath id="1847e82f0d"><path d="M 46 156 L 85 156 L 85 200 L 46 200 Z M 46 156 " clip-rule="nonzero"/></clipPath><clipPath id="b72a83e0d9"><path d="M 31.460938 90.039062 L 179.46875 65.679688 L 201.152344 197.40625 L 53.140625 221.769531 Z M 31.460938 90.039062 " clip-rule="nonzero"/></clipPath><clipPath id="a50a45f42f"><path d="M 31.460938 90.039062 L 179.46875 65.679688 L 201.152344 197.40625 L 53.140625 221.769531 Z M 31.460938 90.039062 " clip-rule="nonzero"/></clipPath></defs><path fill="#000000" d="M 370.117188 182.957031 L 354.550781 173.335938 C 354.445312 171.820312 354.269531 170.308594 354.128906 168.804688 L 367.464844 156.347656 C 368.84375 155.082031 369.445312 153.207031 369.09375 151.390625 C 368.703125 149.570312 367.429688 148.070312 365.695312 147.421875 L 348.644531 141.035156 C 348.183594 139.554688 347.757812 138.089844 347.300781 136.628906 L 357.949219 121.832031 C 359.042969 120.328125 359.257812 118.371094 358.550781 116.65625 C 357.84375 114.949219 356.285156 113.722656 354.445312 113.421875 L 336.4375 110.492188 C 335.765625 109.128906 335.023438 107.785156 334.28125 106.449219 L 341.851562 89.839844 C 342.628906 88.148438 342.488281 86.183594 341.425781 84.648438 C 340.402344 83.105469 338.667969 82.203125 336.792969 82.273438 L 318.539062 82.910156 C 317.582031 81.730469 316.628906 80.558594 315.636719 79.40625 L 319.847656 61.605469 C 320.269531 59.796875 319.742188 57.90625 318.429688 56.59375 C 317.121094 55.285156 315.210938 54.742188 313.40625 55.167969 L 295.613281 59.363281 C 294.445312 58.386719 293.277344 57.421875 292.109375 56.476562 L 292.746094 38.199219 C 292.816406 36.351562 291.898438 34.59375 290.378906 33.566406 C 288.820312 32.53125 286.875 32.378906 285.175781 33.144531 L 268.570312 40.714844 C 267.230469 39.980469 265.886719 39.25 264.527344 38.546875 L 261.589844 20.535156 C 261.292969 18.710938 260.070312 17.160156 258.355469 16.453125 C 256.648438 15.742188 254.6875 15.972656 253.183594 17.054688 L 238.378906 27.707031 C 236.921875 27.242188 235.457031 26.796875 233.980469 26.375 L 227.59375 9.292969 C 226.945312 7.554688 225.445312 6.277344 223.625 5.914062 C 221.804688 5.558594 219.933594 6.164062 218.671875 7.515625 L 206.210938 20.882812 C 204.707031 20.71875 203.195312 20.566406 201.683594 20.441406 L 192.058594 4.894531 C 191.085938 3.320312 189.363281 2.359375 187.511719 2.359375 C 185.65625 2.359375 183.933594 3.320312 182.964844 4.894531 L 173.34375 20.441406 C 171.828125 20.566406 170.3125 20.71875 168.808594 20.882812 L 156.347656 7.515625 C 155.082031 6.164062 153.207031 5.558594 151.394531 5.914062 C 149.570312 6.28125 148.070312 7.554688 147.425781 9.292969 L 141.039062 26.375 C 139.558594 26.796875 138.09375 27.246094 136.632812 27.707031 L 121.832031 17.054688 C 120.328125 15.96875 118.367188 15.738281 116.65625 16.453125 C 114.949219 17.160156 113.71875 18.710938 113.421875 20.535156 L 110.488281 38.546875 C 109.128906 39.25 107.785156 39.976562 106.445312 40.714844 L 89.835938 33.144531 C 88.148438 32.375 86.183594 32.53125 84.648438 33.566406 C 83.105469 34.59375 82.203125 36.351562 82.273438 38.199219 L 82.910156 56.476562 C 81.730469 57.421875 80.558594 58.386719 79.402344 59.363281 L 61.601562 55.167969 C 59.792969 54.746094 57.898438 55.285156 56.589844 56.59375 C 55.273438 57.90625 54.738281 59.796875 55.164062 61.605469 L 59.355469 79.40625 C 58.382812 80.5625 57.421875 81.730469 56.476562 82.910156 L 38.199219 82.273438 C 36.355469 82.21875 34.59375 83.105469 33.566406 84.648438 C 32.53125 86.183594 32.378906 88.148438 33.144531 89.839844 L 40.714844 106.449219 C 39.980469 107.785156 39.25 109.128906 38.546875 110.492188 L 20.539062 113.421875 C 18.710938 113.71875 17.167969 114.945312 16.457031 116.65625 C 15.75 118.371094 15.980469 120.328125 17.058594 121.832031 L 27.710938 136.628906 C 27.246094 138.089844 26.796875 139.554688 26.375 141.035156 L 9.292969 147.421875 C 7.558594 148.070312 6.28125 149.570312 5.921875 151.390625 C 5.5625 153.207031 6.167969 155.082031 7.519531 156.347656 L 20.882812 168.804688 C 20.71875 170.308594 20.570312 171.824219 20.441406 173.335938 L 4.894531 182.957031 C 3.320312 183.929688 2.363281 185.648438 2.363281 187.507812 C 2.363281 189.363281 3.320312 191.082031 4.894531 192.054688 L 20.441406 201.675781 C 20.570312 203.191406 20.71875 204.699219 20.882812 206.203125 L 7.519531 218.667969 C 6.167969 219.929688 5.5625 221.804688 5.921875 223.621094 C 6.28125 225.441406 7.558594 226.9375 9.292969 227.589844 L 26.375 233.976562 C 26.796875 235.453125 27.246094 236.921875 27.710938 238.382812 L 17.058594 253.179688 C 15.976562 254.6875 15.746094 256.644531 16.457031 258.355469 C 17.167969 260.070312 18.714844 261.292969 20.542969 261.585938 L 38.546875 264.515625 C 39.25 265.882812 39.972656 267.226562 40.714844 268.566406 L 33.144531 285.167969 C 32.375 286.839844 32.53125 288.820312 33.566406 290.378906 C 34.597656 291.898438 36.355469 292.816406 38.199219 292.746094 L 56.46875 292.109375 C 57.421875 293.277344 58.378906 294.445312 59.355469 295.613281 L 55.164062 313.40625 C 54.738281 315.210938 55.273438 317.085938 56.589844 318.394531 C 57.894531 319.742188 59.792969 320.269531 61.601562 319.847656 L 79.402344 315.636719 C 80.558594 316.628906 81.730469 317.582031 82.910156 318.539062 L 82.273438 336.792969 C 82.203125 338.667969 83.105469 340.402344 84.648438 341.425781 C 86.183594 342.453125 88.148438 342.628906 89.835938 341.851562 L 106.445312 334.28125 C 107.78125 335.023438 109.125 335.765625 110.488281 336.4375 L 113.421875 354.445312 C 113.71875 356.285156 114.945312 357.84375 116.65625 358.550781 C 118.367188 359.257812 120.328125 359.007812 121.832031 357.949219 L 136.628906 347.300781 C 138.089844 347.757812 139.554688 348.183594 141.035156 348.609375 L 147.421875 365.695312 C 148.070312 367.429688 149.570312 368.703125 151.390625 369.054688 C 153.207031 369.445312 155.082031 368.84375 156.34375 367.464844 L 168.804688 354.09375 C 170.308594 354.269531 171.824219 354.410156 173.339844 354.550781 L 182.960938 370.117188 C 183.929688 371.675781 185.652344 372.628906 187.507812 372.628906 C 189.359375 372.628906 191.082031 371.675781 192.054688 370.117188 L 201.679688 354.550781 C 203.195312 354.410156 204.703125 354.269531 206.207031 354.09375 L 218.667969 367.464844 C 219.929688 368.84375 221.804688 369.445312 223.621094 369.054688 C 225.441406 368.703125 226.941406 367.429688 227.589844 365.695312 L 233.976562 348.609375 C 235.453125 348.183594 236.921875 347.757812 238.382812 347.300781 L 253.179688 357.949219 C 254.683594 359.007812 256.644531 359.257812 258.355469 358.550781 C 260.066406 357.84375 261.289062 356.285156 261.585938 354.445312 L 264.523438 336.4375 C 265.882812 335.765625 267.226562 335.023438 268.566406 334.28125 L 285.171875 341.851562 C 286.875 342.628906 288.820312 342.453125 290.378906 341.425781 C 291.898438 340.402344 292.816406 338.667969 292.746094 336.792969 L 292.109375 318.539062 C 293.277344 317.582031 294.445312 316.628906 295.613281 315.636719 L 313.40625 319.847656 C 315.210938 320.269531 317.121094 319.742188 318.394531 318.394531 C 319.742188 317.085938 320.269531 315.210938 319.847656 313.40625 L 315.636719 295.613281 C 316.628906 294.445312 317.582031 293.277344 318.539062 292.109375 L 336.792969 292.746094 C 338.632812 292.816406 340.402344 291.898438 341.425781 290.378906 C 342.453125 288.820312 342.628906 286.839844 341.851562 285.167969 L 334.28125 268.566406 C 335.023438 267.226562 335.765625 265.882812 336.4375 264.515625 L 354.445312 261.585938 C 356.285156 261.292969 357.84375 260.070312 358.550781 258.355469 C 359.257812 256.644531 359.007812 254.6875 357.949219 253.179688 L 347.300781 238.382812 C 347.757812 236.921875 348.183594 235.453125 348.609375 233.976562 L 365.695312 227.589844 C 367.429688 226.9375 368.703125 225.441406 369.054688 223.621094 C 369.445312 221.800781 368.84375 219.929688 367.464844 218.667969 L 354.128906 206.203125 C 354.269531 204.699219 354.410156 203.1875 354.550781 201.675781 L 370.117188 192.054688 C 371.675781 191.082031 372.628906 189.359375 372.628906 187.507812 C 372.628906 185.652344 371.675781 183.929688 370.117188 182.957031 Z M 266.066406 311.921875 C 260.128906 310.648438 256.355469 304.777344 257.628906 298.832031 C 258.898438 292.890625 264.746094 289.105469 270.679688 290.378906 C 276.617188 291.652344 280.398438 297.523438 279.125 303.46875 C 277.851562 309.410156 272 313.195312 266.066406 311.921875 Z M 162.394531 53.261719 L 179.324219 71.023438 C 183.152344 75.03125 189.492188 75.179688 193.496094 71.347656 L 212.441406 53.230469 C 252.136719 60.617188 285.746094 85.332031 305.128906 119.230469 L 292.144531 148.523438 C 289.917969 153.59375 292.179688 159.523438 297.242188 161.769531 L 322.21875 172.859375 C 327.207031 218 307.359375 257.960938 284.042969 281.1875 L 260.785156 276.1875 C 255.367188 275.027344 250.039062 278.472656 248.878906 283.898438 L 243.359375 309.65625 C 226.332031 317.371094 207.417969 321.6875 187.5 321.6875 C 167.125 321.6875 147.804688 317.15625 130.46875 309.128906 L 124.953125 283.359375 C 123.792969 277.9375 118.464844 274.484375 113.050781 275.648438 L 90.316406 280.53125 C 66.378906 255.355469 48.65625 219.410156 52.902344 171.769531 L 76.589844 161.242188 C 81.648438 158.996094 83.933594 153.066406 81.6875 147.996094 L 69.375 120.140625 C 90.71875 82.449219 126.222656 60.167969 162.394531 53.261719 Z M 107.769531 311.355469 C 101.832031 312.664062 95.988281 308.878906 94.710938 302.9375 C 93.441406 296.957031 97.21875 291.121094 103.152344 289.847656 C 109.089844 288.574219 114.9375 292.359375 116.210938 298.300781 C 117.480469 304.246094 113.703125 310.082031 107.769531 311.355469 Z M 65.800781 141.191406 C 68.265625 146.75 65.757812 153.261719 60.207031 155.71875 C 54.65625 158.1875 48.164062 155.679688 45.699219 150.117188 C 43.238281 144.554688 45.742188 138.054688 51.292969 135.585938 C 56.847656 133.125 63.339844 135.628906 65.800781 141.191406 Z M 179.332031 38.152344 C 183.71875 33.949219 190.675781 34.113281 194.875 38.507812 C 199.070312 42.914062 198.910156 49.878906 194.511719 54.078125 C 190.125 58.28125 183.167969 58.117188 178.96875 53.71875 C 174.777344 49.320312 174.9375 42.355469 179.332031 38.152344 Z M 308.03125 141.726562 C 310.507812 136.167969 316.980469 133.660156 322.535156 136.125 C 328.089844 138.585938 330.601562 145.097656 328.125 150.65625 C 325.683594 156.214844 319.175781 158.722656 313.621094 156.257812 C 308.066406 153.796875 305.589844 147.289062 308.03125 141.726562 Z M 308.03125 141.726562 " fill-opacity="1" fill-rule="nonzero"/><path fill="#a52b00" d="M 195.855469 209.839844 C 177.949219 209.839844 161.765625 211.996094 149.578125 215.511719 L 149.578125 214.71875 C 137.390625 218.648438 129.628906 224.105469 129.628906 230.140625 C 129.628906 231.089844 129.835938 232.027344 130.207031 232.949219 L 128.957031 235.191406 C 128.957031 235.191406 127.957031 236.5 129.730469 239.261719 C 131.292969 241.695312 139.128906 251.226562 143.265625 256.21875 C 145.039062 258.777344 146.246094 260.351562 146.351562 260.199219 C 146.519531 259.960938 145.25 255.15625 141.722656 249.675781 C 140.074219 246.730469 138.070312 242.828125 136.890625 239.949219 C 140.183594 242.039062 144.578125 243.933594 149.578125 245.5625 L 149.578125 245.539062 C 161.765625 249.054688 177.949219 251.210938 195.855469 251.210938 C 216.347656 251.210938 234.734375 248.382812 247.078125 243.929688 L 247.078125 217.121094 C 234.734375 212.667969 216.347656 209.839844 195.855469 209.839844 " fill-opacity="1" fill-rule="nonzero"/><path fill="#a52b00" d="M 265.496094 234.707031 L 263.394531 230.351562 C 263.40625 230.183594 263.414062 230.019531 263.414062 229.851562 C 263.414062 224.914062 258.289062 220.363281 249.664062 216.71875 L 249.664062 242.988281 C 253.6875 241.289062 256.953125 239.390625 259.289062 237.347656 C 258.601562 240.113281 256.25 245.714844 254.378906 249.652344 C 251.296875 255.285156 250.183594 260.191406 250.324219 260.433594 C 250.417969 260.585938 251.46875 258.960938 253.015625 256.332031 C 256.621094 251.183594 263.453125 241.359375 264.820312 238.855469 C 266.367188 236.019531 265.496094 234.707031 265.496094 234.707031 " fill-opacity="1" fill-rule="nonzero"/><path fill="#f74c00" d="M 277.683594 234.683594 L 263.886719 224.5 C 263.757812 224.046875 263.625 223.59375 263.492188 223.144531 L 268.023438 216.566406 C 268.488281 215.898438 268.578125 215.027344 268.28125 214.265625 C 267.980469 213.503906 267.320312 212.960938 266.542969 212.828125 L 258.878906 211.523438 C 258.582031 210.917969 258.273438 210.320312 257.960938 209.726562 L 261.179688 202.339844 C 261.511719 201.589844 261.441406 200.714844 261 200.03125 C 260.5625 199.34375 259.820312 198.945312 259.03125 198.976562 L 251.253906 199.257812 C 250.851562 198.734375 250.441406 198.214844 250.023438 197.703125 L 251.8125 189.785156 C 251.992188 188.984375 251.765625 188.140625 251.203125 187.558594 C 250.648438 186.976562 249.84375 186.734375 249.074219 186.921875 L 241.5 188.789062 C 241.007812 188.355469 240.511719 187.925781 240.007812 187.507812 L 240.277344 179.378906 C 240.308594 178.558594 239.925781 177.777344 239.269531 177.320312 C 238.609375 176.859375 237.777344 176.789062 237.058594 177.132812 L 229.992188 180.5 C 229.421875 180.171875 228.851562 179.847656 228.273438 179.535156 L 227.023438 171.527344 C 226.898438 170.714844 226.375 170.023438 225.648438 169.710938 C 224.917969 169.394531 224.085938 169.496094 223.449219 169.976562 L 217.148438 174.714844 C 216.527344 174.507812 215.902344 174.308594 215.273438 174.121094 L 212.558594 166.527344 C 212.28125 165.753906 211.644531 165.183594 210.867188 165.023438 C 210.09375 164.867188 209.296875 165.136719 208.761719 165.734375 L 203.457031 171.679688 C 202.816406 171.605469 202.175781 171.539062 201.53125 171.484375 L 197.4375 164.570312 C 197.023438 163.871094 196.289062 163.445312 195.5 163.445312 C 194.710938 163.445312 193.980469 163.871094 193.566406 164.570312 L 189.472656 171.484375 C 188.828125 171.539062 188.183594 171.605469 187.542969 171.679688 L 182.238281 165.734375 C 181.703125 165.136719 180.902344 164.867188 180.132812 165.023438 C 179.355469 165.1875 178.71875 165.753906 178.445312 166.527344 L 175.726562 174.121094 C 175.097656 174.308594 174.472656 174.507812 173.851562 174.714844 L 167.554688 169.976562 C 166.914062 169.496094 166.078125 169.394531 165.351562 169.710938 C 164.625 170.023438 164.101562 170.714844 163.976562 171.527344 L 162.726562 179.535156 C 162.148438 179.847656 161.574219 180.167969 161.003906 180.5 L 153.9375 177.132812 C 153.222656 176.789062 152.382812 176.859375 151.730469 177.320312 C 151.074219 177.777344 150.691406 178.558594 150.71875 179.378906 L 150.992188 187.507812 C 150.488281 187.925781 149.992188 188.355469 149.496094 188.789062 L 141.925781 186.921875 C 141.15625 186.738281 140.347656 186.976562 139.792969 187.558594 C 139.230469 188.140625 139.003906 188.984375 139.183594 189.785156 L 140.96875 197.703125 C 140.554688 198.214844 140.144531 198.734375 139.742188 199.257812 L 131.964844 198.976562 C 131.179688 198.953125 130.433594 199.34375 129.992188 200.03125 C 129.554688 200.714844 129.488281 201.589844 129.816406 202.339844 L 133.035156 209.726562 C 132.722656 210.320312 132.414062 210.917969 132.113281 211.523438 L 124.453125 212.828125 C 123.671875 212.957031 123.015625 213.503906 122.714844 214.265625 C 122.414062 215.027344 122.511719 215.898438 122.96875 216.566406 L 127.503906 223.144531 C 127.46875 223.257812 127.4375 223.375 127.402344 223.492188 L 114.585938 237.132812 C 114.585938 237.132812 112.621094 238.675781 115.480469 242.300781 C 118.003906 245.496094 130.949219 258.171875 137.785156 264.8125 C 140.671875 268.183594 142.652344 270.269531 142.859375 270.089844 C 143.183594 269.800781 141.472656 263.667969 135.785156 256.472656 C 131.398438 250.015625 125.710938 240.085938 127.042969 238.941406 C 127.042969 238.941406 128.5625 237.011719 131.605469 235.621094 C 131.71875 235.710938 131.492188 235.535156 131.605469 235.621094 C 131.605469 235.621094 195.875 265.328125 255.488281 236.125 C 262.296875 234.902344 266.421875 238.554688 266.421875 238.554688 C 267.84375 239.382812 264.160156 249.59375 261.132812 256.351562 C 257.015625 264.027344 256.414062 270.015625 256.761719 270.222656 C 256.980469 270.355469 258.480469 268.070312 260.617188 264.433594 C 265.890625 257.074219 275.859375 243.039062 277.683594 239.628906 C 279.75 235.765625 277.683594 234.683594 277.683594 234.683594 " fill-opacity="1" fill-rule="nonzero"/><path fill="#000000" d="M 217.992188 253.496094 C 218.238281 253.289062 218.367188 253.164062 218.367188 253.164062 L 197.328125 251.203125 C 214.5 228.507812 228.246094 246.816406 229.710938 248.839844 L 229.710938 253.496094 Z M 217.992188 253.496094 " fill-opacity="1" fill-rule="nonzero"/><path fill="#f74c00" d="M 137.140625 228.488281 C 137.140625 228.488281 119.785156 221.71875 116.847656 214.429688 C 116.847656 214.429688 137.222656 198.195312 112.847656 180.945312 L 112.183594 202.929688 C 112.183594 202.929688 104.960938 195.949219 105.28125 183.722656 C 105.28125 183.722656 82.816406 194.550781 109.105469 213.714844 C 109.105469 213.714844 109.992188 224 133.632812 236.417969 Z M 137.140625 228.488281 " fill-opacity="1" fill-rule="nonzero"/><path fill="#000000" d="M 207.695312 219.203125 C 207.695312 219.203125 214.117188 212.15625 220.539062 219.203125 C 220.539062 219.203125 225.585938 228.597656 220.539062 233.292969 C 220.539062 233.292969 212.28125 239.871094 207.695312 233.292969 C 207.695312 233.292969 202.1875 228.128906 207.695312 219.203125 " fill-opacity="1" fill-rule="nonzero"/><path fill="#ffffff" d="M 215.128906 221.816406 C 215.128906 224.558594 213.515625 226.785156 211.523438 226.785156 C 209.535156 226.785156 207.921875 224.558594 207.921875 221.816406 C 207.921875 219.070312 209.535156 216.847656 211.523438 216.847656 C 213.515625 216.847656 215.128906 219.070312 215.128906 221.816406 " fill-opacity="1" fill-rule="nonzero"/><path fill="#000000" d="M 179.027344 217.277344 C 179.027344 217.277344 190.046875 212.390625 193.050781 223.300781 C 193.050781 223.300781 196.203125 236.015625 184.003906 236.734375 C 184.003906 236.734375 168.453125 233.730469 179.027344 217.277344 " fill-opacity="1" fill-rule="nonzero"/><path fill="#ffffff" d="M 184.5625 221.996094 C 184.5625 224.824219 182.898438 227.121094 180.84375 227.121094 C 178.792969 227.121094 177.125 224.824219 177.125 221.996094 C 177.125 219.164062 178.792969 216.871094 180.84375 216.871094 C 182.898438 216.871094 184.5625 219.164062 184.5625 221.996094 " fill-opacity="1" fill-rule="nonzero"/><path fill="#f74c00" d="M 250.238281 231.15625 C 250.238281 231.15625 247.9375 240.339844 233.628906 249.984375 L 229.617188 250.929688 C 229.617188 250.929688 216.640625 227.210938 198.25 253.9375 C 198.25 253.9375 203.980469 250.59375 219.34375 254.664062 C 219.34375 254.664062 212.277344 265.503906 198.042969 265.171875 C 198.042969 265.171875 211.683594 281.570312 232.445312 257.882812 C 232.445312 257.882812 254.390625 249.378906 256.171875 231.15625 Z M 250.238281 231.15625 " fill-opacity="1" fill-rule="nonzero"/><g clip-path="url(#fec8b7cf4d)"><g clip-path="url(#d8d55ef055)"><g clip-path="url(#fd82c811e4)"><path fill="#f74c00" d="M 145.84375 176.832031 C 153.371094 177.777344 160.242188 172.441406 161.191406 164.914062 L 161.332031 163.769531 C 162.28125 156.242188 156.945312 149.371094 149.417969 148.421875 C 141.886719 147.476562 135.015625 152.8125 134.070312 160.339844 L 133.925781 161.484375 C 132.976562 169.011719 138.316406 175.882812 145.84375 176.832031 " fill-opacity="1" fill-rule="nonzero"/></g></g></g><g clip-path="url(#0d00ccef73)"><g clip-path="url(#e6a8b667b3)"><g clip-path="url(#68441766de)"><g clip-path="url(#2c43de41f7)"><path fill="#f74c00" d="M 158.9375 77.921875 C 145.847656 76.273438 137.640625 79.265625 132.542969 84.746094 C 126.195312 91.578125 130.3125 102.742188 139.566406 103.90625 L 140.25 103.992188 C 145.144531 104.605469 149.730469 101.851562 151.808594 97.378906 C 152.449219 95.992188 153.308594 95.339844 154.550781 95.496094 C 156.691406 95.765625 157.386719 97.15625 156.886719 101.152344 C 156.273438 106.007812 154.757812 108.859375 150.453125 113.105469 C 142.539062 120.664062 138.359375 126.226562 137.140625 135.933594 L 136.835938 138.363281 C 136.664062 139.703125 137.617188 140.925781 138.957031 141.09375 L 161.367188 143.914062 C 162.707031 144.082031 163.929688 143.132812 164.097656 141.789062 C 164.65625 137.367188 166.191406 134.371094 172.40625 127.613281 C 179.40625 120.371094 183.480469 116.824219 184.789062 106.402344 C 186.480469 92.984375 180.921875 80.6875 158.9375 77.921875 " fill-opacity="1" fill-rule="nonzero"/></g></g></g></g><g clip-path="url(#dca48f216c)"><g clip-path="url(#b784f3fa2b)"><g clip-path="url(#b660368dde)"><path fill="#f74c00" d="M 102.042969 157.59375 C 107.902344 156.660156 111.898438 151.152344 110.964844 145.289062 L 110.824219 144.402344 C 109.890625 138.539062 104.382812 134.542969 98.519531 135.476562 C 92.660156 136.410156 88.664062 141.917969 89.597656 147.78125 L 89.738281 148.667969 C 90.671875 154.53125 96.179688 158.527344 102.042969 157.59375 " fill-opacity="1" fill-rule="nonzero"/></g></g></g><g clip-path="url(#0656e52d97)"><g clip-path="url(#ba45464184)"><g clip-path="url(#b6a3c2b641)"><path fill="#f74c00" d="M 90.269531 80.4375 C 80.078125 82.0625 74.566406 86.101562 71.9375 91.332031 C 68.660156 97.847656 74.191406 105.335938 81.394531 104.1875 L 81.929688 104.101562 C 85.742188 103.496094 88.582031 100.425781 89.164062 96.613281 C 89.347656 95.429688 89.847656 94.75 90.816406 94.597656 C 92.484375 94.332031 93.308594 95.226562 93.804688 98.339844 C 94.40625 102.117188 93.890625 104.59375 91.582031 108.71875 C 87.292969 116.125 85.367188 121.21875 86.570312 128.777344 L 86.871094 130.667969 C 87.039062 131.710938 88.019531 132.421875 89.0625 132.253906 L 106.511719 129.476562 C 107.554688 129.3125 108.265625 128.332031 108.101562 127.285156 C 107.550781 123.839844 108.050781 121.253906 111.242188 114.820312 C 114.921875 107.855469 117.203125 104.300781 115.914062 96.183594 C 114.25 85.738281 107.386719 77.714844 90.269531 80.4375 " fill-opacity="1" fill-rule="nonzero"/></g></g></g><g clip-path="url(#a058efad51)"><g clip-path="url(#f7132a43bd)"><g clip-path="url(#3339712da2)"><g clip-path="url(#30037535b9)"><path fill="#f74c00" d="M 86.359375 215.710938 C 90.652344 213.550781 92.386719 208.316406 90.222656 204.019531 L 89.898438 203.367188 C 87.738281 199.074219 82.503906 197.34375 78.207031 199.503906 C 73.910156 201.664062 72.179688 206.898438 74.339844 211.191406 L 74.667969 211.84375 C 76.828125 216.140625 82.0625 217.871094 86.359375 215.710938 " fill-opacity="1" fill-rule="nonzero"/></g></g></g></g><g clip-path="url(#1847e82f0d)"><g clip-path="url(#b72a83e0d9)"><g clip-path="url(#a50a45f42f)"><path fill="#f74c00" d="M 58.320312 159.042969 C 50.851562 162.800781 47.589844 167.269531 46.84375 171.957031 C 45.914062 177.792969 52.023438 182.210938 57.300781 179.558594 L 57.695312 179.359375 C 60.488281 177.957031 61.925781 174.886719 61.4375 171.800781 C 61.289062 170.84375 61.507812 170.195312 62.21875 169.839844 C 63.4375 169.222656 64.296875 169.710938 65.445312 171.992188 C 66.835938 174.761719 67.046875 176.800781 66.277344 180.554688 C 64.785156 187.324219 64.550781 191.726562 67.335938 197.265625 L 68.03125 198.652344 C 68.417969 199.414062 69.351562 199.722656 70.113281 199.339844 L 82.902344 192.910156 C 83.664062 192.523438 83.972656 191.59375 83.589844 190.828125 C 82.320312 188.300781 82.070312 186.183594 82.953125 180.433594 C 84.082031 174.152344 84.972656 170.847656 81.980469 164.902344 C 78.132812 157.246094 70.863281 152.738281 58.320312 159.042969 " fill-opacity="1" fill-rule="nonzero"/></g></g></g></svg>